<svg xmlns="http://www.w3.org/2000/svg" xmlns:xlink="http://www.w3.org/1999/xlink" width="200" zoomAndPan="magnify" viewBox="0 0 150 44.999999" height="60" preserveAspectRatio="xMidYMid meet" version="1.0"><defs><g/><clipPath id="248c0d321b"><path d="M 87.296875 2.074219 L 96.15625 2.074219 L 96.15625 41.519531 L 87.296875 41.519531 Z M 87.296875 2.074219 " clip-rule="nonzero"/></clipPath><clipPath id="e1e4c418c3"><path d="M 87.300781 1.902344 L 128.8125 1.902344 L 128.8125 40.984375 L 87.300781 40.984375 Z M 87.300781 1.902344 " clip-rule="nonzero"/></clipPath><clipPath id="af51df2be3"><path d="M 96.160156 2.304688 L 137.675781 2.304688 L 137.675781 41.390625 L 96.160156 41.390625 Z M 96.160156 2.304688 " clip-rule="nonzero"/></clipPath><clipPath id="8580fd45c9"><path d="M 99.996094 2.304688 L 141.507812 2.304688 L 141.507812 41.390625 L 99.996094 41.390625 Z M 99.996094 2.304688 " clip-rule="nonzero"/></clipPath><clipPath id="fb6dadc333"><path d="M 88 0 L 115.316406 0 L 115.316406 2.074219 L 88 2.074219 Z M 88 0 " clip-rule="nonzero"/></clipPath><clipPath id="5d9d63be0c"><path d="M 94.484375 20.304688 L 111.296875 20.304688 L 111.296875 29.167969 L 94.484375 29.167969 Z M 94.484375 20.304688 " clip-rule="nonzero"/></clipPath><clipPath id="db8c61f35b"><path d="M 108.058594 7.949219 L 116.917969 7.949219 L 116.917969 41.515625 L 108.058594 41.515625 Z M 108.058594 7.949219 " clip-rule="nonzero"/></clipPath><clipPath id="547ba081d1"><path d="M 88.109375 4.488281 L 95.148438 4.488281 L 95.148438 45 L 88.109375 45 Z M 88.109375 4.488281 " clip-rule="nonzero"/></clipPath><clipPath id="9d444c499d"><path d="M 95.246094 37.480469 L 101.824219 37.480469 L 101.824219 45 L 95.246094 45 Z M 95.246094 37.480469 " clip-rule="nonzero"/></clipPath><clipPath id="92db9dd960"><path d="M 36 6 L 60.289062 6 L 60.289062 12 L 36 12 Z M 36 6 " clip-rule="nonzero"/></clipPath><clipPath id="faa546c3e3"><path d="M 36 9 L 44 9 L 44 33.496094 L 36 33.496094 Z M 36 9 " clip-rule="nonzero"/></clipPath><clipPath id="a8f4a0cc16"><path d="M 34 6 L 35 6 L 35 8 L 34 8 Z M 34 6 " clip-rule="nonzero"/></clipPath><clipPath id="f2512979dc"><path d="M 39 5.390625 L 48 5.390625 L 48 7 L 39 7 Z M 39 5.390625 " clip-rule="nonzero"/></clipPath><clipPath id="cda2e4a9c0"><path d="M 47 5.390625 L 50 5.390625 L 50 7 L 47 7 Z M 47 5.390625 " clip-rule="nonzero"/></clipPath><clipPath id="e2054b3ee4"><path d="M 49 5.390625 L 52 5.390625 L 52 7 L 49 7 Z M 49 5.390625 " clip-rule="nonzero"/></clipPath><clipPath id="a4a00caf04"><path d="M 11.921875 6 L 36 6 L 36 12 L 11.921875 12 Z M 11.921875 6 " clip-rule="nonzero"/></clipPath><clipPath id="cd39b48a02"><path d="M 28 9 L 36 9 L 36 33.496094 L 28 33.496094 Z M 28 9 " clip-rule="nonzero"/></clipPath><clipPath id="32d6fd655a"><path d="M 37 6 L 38.15625 6 L 38.15625 8 L 37 8 Z M 37 6 " clip-rule="nonzero"/></clipPath><clipPath id="b77035df8c"><path d="M 24 5.390625 L 33 5.390625 L 33 7 L 24 7 Z M 24 5.390625 " clip-rule="nonzero"/></clipPath><clipPath id="1ed343f40e"><path d="M 22 5.390625 L 25 5.390625 L 25 7 L 22 7 Z M 22 5.390625 " clip-rule="nonzero"/></clipPath><clipPath id="8481647179"><path d="M 20 5.390625 L 23 5.390625 L 23 7 L 20 7 Z M 20 5.390625 " clip-rule="nonzero"/></clipPath></defs><g clip-path="url(#248c0d321b)"><path fill="#ffffff" d="M 96.15625 2.074219 L 96.15625 41.53125 L 87.296875 41.53125 L 87.296875 2.074219 Z M 96.15625 2.074219 " fill-opacity="1" fill-rule="nonzero"/></g><g clip-path="url(#e1e4c418c3)"><path fill="#d70018" d="M 128.097656 14.890625 C 125.851562 6.621094 119.058594 1.683594 109.921875 1.683594 L 87.300781 1.683594 L 87.746094 2.703125 C 89.664062 7.097656 94 9.941406 98.796875 9.941406 L 105.007812 9.941406 C 105.242188 9.921875 106.105469 9.871094 107.40625 9.871094 C 108.652344 9.871094 109.925781 9.921875 111.179688 10.015625 L 111.300781 10.027344 C 116.109375 10.402344 122.691406 11.660156 126.761719 15.492188 L 126.816406 15.539062 C 126.835938 15.558594 126.855469 15.578125 126.878906 15.601562 L 128.8125 17.527344 Z M 128.71875 24.421875 L 128.714844 24.503906 C 127.492188 34.808594 120.214844 41.207031 109.71875 41.207031 L 95.289062 41.207031 L 95.289062 21.699219 L 96.019531 21.699219 C 100.242188 21.699219 103.679688 25.136719 103.679688 29.359375 L 103.679688 32.816406 L 110.074219 32.816406 C 113.222656 32.816406 115.871094 31.78125 117.742188 29.824219 C 119.640625 27.835938 120.644531 24.957031 120.644531 21.503906 L 120.644531 21.386719 C 120.644531 18.714844 120.058594 16.40625 118.898438 14.535156 L 117.816406 12.785156 L 119.757812 13.460938 C 122.171875 14.296875 124.125 15.410156 125.570312 16.773438 C 127.683594 18.761719 128.742188 21.335938 128.71875 24.421875 " fill-opacity="1" fill-rule="nonzero"/></g><g clip-path="url(#af51df2be3)"><path fill="#d70018" d="M 136.957031 15.292969 C 134.710938 7.023438 127.917969 2.085938 118.78125 2.085938 L 96.160156 2.085938 L 96.605469 3.109375 C 98.523438 7.503906 102.863281 10.34375 107.65625 10.34375 L 113.867188 10.34375 C 114.101562 10.328125 114.96875 10.273438 116.265625 10.273438 C 117.511719 10.273438 118.785156 10.324219 120.039062 10.421875 L 120.164062 10.429688 C 124.96875 10.808594 131.554688 12.0625 135.621094 15.894531 L 135.675781 15.945312 C 135.695312 15.964844 135.71875 15.984375 135.738281 16.003906 L 137.675781 17.933594 Z M 137.578125 24.828125 L 137.574219 24.90625 C 136.351562 35.210938 129.074219 41.613281 118.582031 41.613281 L 104.148438 41.613281 L 104.148438 22.101562 L 104.878906 22.101562 C 109.105469 22.101562 112.542969 25.539062 112.542969 29.765625 L 112.542969 33.21875 L 118.933594 33.21875 C 122.082031 33.21875 124.730469 32.183594 126.601562 30.230469 C 128.5 28.238281 129.507812 25.359375 129.507812 21.910156 L 129.507812 21.789062 C 129.507812 19.117188 128.917969 16.8125 127.757812 14.9375 L 126.675781 13.1875 L 128.621094 13.863281 C 131.03125 14.699219 132.988281 15.8125 134.433594 17.175781 C 136.542969 19.164062 137.601562 21.738281 137.578125 24.828125 " fill-opacity="1" fill-rule="nonzero"/></g><g clip-path="url(#8580fd45c9)"><path fill="#ffffff" d="M 140.792969 15.292969 C 138.546875 7.023438 131.753906 2.085938 122.617188 2.085938 L 99.996094 2.085938 L 100.441406 3.109375 C 102.359375 7.503906 106.695312 10.34375 111.492188 10.34375 L 117.703125 10.34375 C 117.9375 10.328125 118.800781 10.273438 120.097656 10.273438 C 121.347656 10.273438 122.617188 10.324219 123.875 10.421875 L 123.996094 10.429688 C 128.804688 10.808594 135.386719 12.0625 139.457031 15.894531 L 139.507812 15.945312 C 139.53125 15.964844 139.550781 15.984375 139.570312 16.003906 L 141.507812 17.933594 Z M 141.414062 24.828125 L 141.40625 24.90625 C 140.183594 35.210938 132.90625 41.613281 122.414062 41.613281 L 107.984375 41.613281 L 107.984375 22.101562 L 108.714844 22.101562 C 112.9375 22.101562 116.375 25.539062 116.375 29.765625 L 116.375 33.21875 L 122.765625 33.21875 C 125.914062 33.21875 128.566406 32.183594 130.433594 30.230469 C 132.335938 28.238281 133.339844 25.359375 133.339844 21.910156 L 133.339844 21.789062 C 133.339844 19.117188 132.753906 16.8125 131.59375 14.9375 L 130.511719 13.1875 L 132.453125 13.863281 C 134.863281 14.699219 136.820312 15.8125 138.265625 17.175781 C 140.378906 19.164062 141.4375 21.738281 141.414062 24.828125 " fill-opacity="1" fill-rule="nonzero"/></g><g clip-path="url(#fb6dadc333)"><path fill="#d70018" d="M 88 -6.785156 L 115.308594 -6.785156 L 115.308594 2.074219 L 88 2.074219 Z M 88 -6.785156 " fill-opacity="1" fill-rule="nonzero"/></g><g clip-path="url(#5d9d63be0c)"><path fill="#ffffff" d="M 94.484375 20.304688 L 111.304688 20.304688 L 111.304688 29.167969 L 94.484375 29.167969 Z M 94.484375 20.304688 " fill-opacity="1" fill-rule="nonzero"/></g><g clip-path="url(#db8c61f35b)"><path fill="#ffffff" d="M 108.058594 41.515625 L 108.058594 7.945312 L 116.917969 7.945312 L 116.917969 41.515625 Z M 108.058594 41.515625 " fill-opacity="1" fill-rule="nonzero"/></g><path fill="#d70018" d="M 91.730469 19.03125 L 92.269531 19.519531 L 92.269531 24.578125 L 94.496094 26.804688 L 94.496094 18.207031 L 91.730469 15.441406 Z M 91.730469 19.03125 " fill-opacity="1" fill-rule="nonzero"/><path fill="#d70018" d="M 91.734375 15.046875 L 94.496094 17.808594 L 94.5 15.84375 L 91.738281 13.074219 Z M 91.734375 15.046875 " fill-opacity="1" fill-rule="nonzero"/><path fill="#d70018" d="M 94.496094 15.441406 L 94.5 13.476562 L 91.738281 10.703125 L 91.734375 12.679688 Z M 94.496094 15.441406 " fill-opacity="1" fill-rule="nonzero"/><g clip-path="url(#547ba081d1)"><path fill="#d70018" d="M 88.113281 5.199219 C 88.113281 5.386719 88.238281 5.542969 88.410156 5.589844 L 88.410156 13.007812 L 90.304688 14.902344 L 90.304688 18.253906 L 91.171875 19.125 L 91.171875 24.121094 L 91.832031 24.78125 L 91.832031 30.414062 L 94.355469 32.9375 L 94.355469 50.71875 L 94.558594 50.71875 L 94.558594 33.136719 L 95.15625 33.734375 L 95.15625 53.535156 L 95.359375 53.535156 L 95.359375 33.652344 L 94.558594 32.851562 L 94.558594 27.21875 L 92.035156 24.699219 L 92.035156 19.699219 L 91.375 19.039062 L 91.375 15.6875 L 90.503906 14.816406 L 90.503906 8.972656 C 90.683594 8.929688 90.816406 8.773438 90.816406 8.582031 C 90.816406 8.355469 90.636719 8.175781 90.410156 8.175781 C 90.1875 8.175781 90.003906 8.355469 90.003906 8.582031 C 90.003906 8.769531 90.132812 8.921875 90.304688 8.972656 L 90.304688 14.613281 L 88.613281 12.925781 L 88.613281 5.59375 C 88.792969 5.550781 88.921875 5.390625 88.921875 5.199219 C 88.921875 4.972656 88.742188 4.792969 88.519531 4.792969 C 88.292969 4.792969 88.113281 4.972656 88.113281 5.199219 Z M 94.355469 27.304688 L 94.355469 32.648438 L 92.035156 30.328125 L 92.035156 24.984375 Z M 91.832031 19.78125 L 91.832031 24.492188 L 91.375 24.039062 L 91.375 19.328125 Z M 91.171875 15.769531 L 91.171875 18.835938 L 90.503906 18.171875 L 90.503906 15.105469 Z M 91.171875 15.769531 " fill-opacity="1" fill-rule="nonzero"/></g><g clip-path="url(#9d444c499d)"><path fill="#d70018" d="M 101.824219 45.753906 L 95.246094 45.753906 L 95.246094 37.480469 L 101.824219 37.480469 Z M 101.824219 45.753906 " fill-opacity="1" fill-rule="nonzero"/></g><g fill="#ffffff" fill-opacity="1"><g transform="translate(2.31774, 33.185764)"><g><path d="M 1.3125 -15.90625 C 1.550781 -15.90625 1.894531 -15.878906 2.34375 -15.828125 C 2.800781 -15.785156 3.210938 -15.765625 3.578125 -15.765625 C 3.890625 -15.765625 4.296875 -15.785156 4.796875 -15.828125 C 5.296875 -15.878906 5.664062 -15.90625 5.90625 -15.90625 C 6.132812 -15.90625 6.304688 -15.835938 6.421875 -15.703125 C 6.546875 -15.578125 6.609375 -15.398438 6.609375 -15.171875 C 6.609375 -14.960938 6.550781 -14.769531 6.4375 -14.59375 C 6.34375 -14.457031 6.265625 -14.296875 6.203125 -14.109375 C 6.148438 -13.929688 6.125 -13.644531 6.125 -13.25 L 6.125 -10.890625 C 6.125 -10.578125 6.171875 -10.363281 6.265625 -10.25 C 6.367188 -10.144531 6.570312 -10.09375 6.875 -10.09375 L 7.96875 -10.09375 C 8.28125 -10.09375 8.476562 -10.15625 8.5625 -10.28125 C 8.65625 -10.40625 8.703125 -10.628906 8.703125 -10.953125 L 8.703125 -13.453125 C 8.703125 -13.765625 8.671875 -14.003906 8.609375 -14.171875 C 8.554688 -14.335938 8.484375 -14.5 8.390625 -14.65625 C 8.273438 -14.84375 8.21875 -15.03125 8.21875 -15.21875 C 8.21875 -15.40625 8.28125 -15.566406 8.40625 -15.703125 C 8.53125 -15.835938 8.703125 -15.90625 8.921875 -15.90625 C 10.015625 -15.8125 10.765625 -15.765625 11.171875 -15.765625 C 11.523438 -15.765625 11.957031 -15.785156 12.46875 -15.828125 C 12.976562 -15.878906 13.332031 -15.90625 13.53125 -15.90625 C 13.738281 -15.90625 13.90625 -15.835938 14.03125 -15.703125 C 14.15625 -15.578125 14.21875 -15.410156 14.21875 -15.203125 C 14.21875 -14.992188 14.160156 -14.796875 14.046875 -14.609375 C 13.953125 -14.460938 13.878906 -14.316406 13.828125 -14.171875 C 13.785156 -14.035156 13.765625 -13.84375 13.765625 -13.59375 L 13.765625 -2.3125 C 13.765625 -2 13.789062 -1.753906 13.84375 -1.578125 C 13.894531 -1.410156 13.96875 -1.253906 14.0625 -1.109375 C 14.113281 -1.023438 14.15625 -0.941406 14.1875 -0.859375 C 14.226562 -0.785156 14.25 -0.695312 14.25 -0.59375 C 14.25 -0.375 14.179688 -0.195312 14.046875 -0.0625 C 13.921875 0.0703125 13.757812 0.140625 13.5625 0.140625 C 12.550781 0.046875 11.710938 0 11.046875 0 C 10.390625 0 9.890625 0.0195312 9.546875 0.0625 C 9.203125 0.113281 8.984375 0.140625 8.890625 0.140625 C 8.679688 0.140625 8.515625 0.0703125 8.390625 -0.0625 C 8.273438 -0.207031 8.21875 -0.382812 8.21875 -0.59375 C 8.21875 -0.78125 8.289062 -0.976562 8.4375 -1.1875 C 8.582031 -1.4375 8.664062 -1.664062 8.6875 -1.875 C 8.695312 -2.320312 8.703125 -3.320312 8.703125 -4.875 C 8.703125 -5.320312 8.660156 -5.613281 8.578125 -5.75 C 8.492188 -5.882812 8.304688 -5.953125 8.015625 -5.953125 L 6.84375 -5.953125 C 6.539062 -5.953125 6.34375 -5.882812 6.25 -5.75 C 6.164062 -5.625 6.125 -5.398438 6.125 -5.078125 L 6.125 -2.3125 C 6.125 -2.007812 6.148438 -1.773438 6.203125 -1.609375 C 6.265625 -1.453125 6.34375 -1.300781 6.4375 -1.15625 C 6.550781 -0.96875 6.609375 -0.78125 6.609375 -0.59375 C 6.609375 -0.363281 6.546875 -0.179688 6.421875 -0.046875 C 6.304688 0.078125 6.140625 0.140625 5.921875 0.140625 C 5.859375 0.140625 5.578125 0.113281 5.078125 0.0625 C 4.578125 0.0195312 4.117188 0 3.703125 0 C 3.191406 0 2.390625 0.046875 1.296875 0.140625 C 1.078125 0.140625 0.90625 0.078125 0.78125 -0.046875 C 0.664062 -0.179688 0.609375 -0.363281 0.609375 -0.59375 C 0.609375 -0.75 0.671875 -0.9375 0.796875 -1.15625 C 0.890625 -1.3125 0.960938 -1.46875 1.015625 -1.625 C 1.066406 -1.78125 1.09375 -1.988281 1.09375 -2.25 L 1.09375 -13.53125 C 1.09375 -13.800781 1.066406 -14.003906 1.015625 -14.140625 C 0.972656 -14.285156 0.90625 -14.425781 0.8125 -14.5625 C 0.738281 -14.675781 0.6875 -14.769531 0.65625 -14.84375 C 0.625 -14.925781 0.609375 -15.046875 0.609375 -15.203125 C 0.609375 -15.429688 0.675781 -15.601562 0.8125 -15.71875 C 0.945312 -15.84375 1.113281 -15.90625 1.3125 -15.90625 Z M 1.3125 -15.90625 "/></g></g></g><g fill="#ffffff" fill-opacity="1"><g transform="translate(17.14584, 33.185764)"><g><path d="M 1.359375 -15.90625 C 1.554688 -15.90625 1.734375 -15.894531 1.890625 -15.875 C 2.054688 -15.863281 2.28125 -15.84375 2.5625 -15.8125 C 2.851562 -15.78125 3.132812 -15.765625 3.40625 -15.765625 C 3.738281 -15.765625 4.03125 -15.769531 4.28125 -15.78125 C 4.539062 -15.789062 4.898438 -15.8125 5.359375 -15.84375 C 5.828125 -15.882812 6.285156 -15.90625 6.734375 -15.90625 C 9.222656 -15.90625 11.050781 -15.195312 12.21875 -13.78125 C 13.394531 -12.363281 13.984375 -10.421875 13.984375 -7.953125 C 13.984375 -6.179688 13.679688 -4.691406 13.078125 -3.484375 C 12.484375 -2.273438 11.644531 -1.367188 10.5625 -0.765625 C 9.476562 -0.160156 8.21875 0.140625 6.78125 0.140625 C 6.4375 0.140625 6.132812 0.128906 5.875 0.109375 C 5.613281 0.0976562 5.253906 0.078125 4.796875 0.046875 C 4.335938 0.015625 3.890625 0 3.453125 0 C 3.296875 0 2.570312 0.046875 1.28125 0.140625 C 1.070312 0.140625 0.90625 0.0703125 0.78125 -0.0625 C 0.65625 -0.195312 0.59375 -0.375 0.59375 -0.59375 C 0.59375 -0.6875 0.609375 -0.78125 0.640625 -0.875 C 0.679688 -0.96875 0.734375 -1.0625 0.796875 -1.15625 C 0.992188 -1.476562 1.09375 -1.820312 1.09375 -2.1875 L 1.09375 -13.421875 C 1.09375 -13.753906 1.066406 -14 1.015625 -14.15625 C 0.960938 -14.3125 0.890625 -14.457031 0.796875 -14.59375 C 0.722656 -14.695312 0.671875 -14.789062 0.640625 -14.875 C 0.609375 -14.957031 0.59375 -15.066406 0.59375 -15.203125 C 0.59375 -15.429688 0.65625 -15.601562 0.78125 -15.71875 C 0.914062 -15.84375 1.109375 -15.90625 1.359375 -15.90625 Z M 6.109375 -10.921875 L 6.109375 -4.953125 C 6.109375 -4.742188 6.160156 -4.597656 6.265625 -4.515625 C 6.378906 -4.441406 6.617188 -4.40625 6.984375 -4.40625 C 7.722656 -4.40625 8.21875 -4.710938 8.46875 -5.328125 C 8.726562 -5.953125 8.859375 -6.84375 8.859375 -8 C 8.859375 -9.25 8.707031 -10.160156 8.40625 -10.734375 C 8.113281 -11.316406 7.601562 -11.609375 6.875 -11.609375 C 6.550781 -11.609375 6.34375 -11.5625 6.25 -11.46875 C 6.15625 -11.382812 6.109375 -11.203125 6.109375 -10.921875 Z M 6.109375 -10.921875 "/></g></g></g><g fill="#ffffff" fill-opacity="1"><g transform="translate(31.510739, 33.185764)"><g/></g></g><g fill="#ffffff" fill-opacity="1"><g transform="translate(38.004355, 33.185764)"><g/></g></g><g fill="#ffffff" fill-opacity="1"><g transform="translate(44.499892, 33.185764)"><g><path d="M 1.359375 -15.90625 C 1.453125 -15.90625 1.660156 -15.890625 1.984375 -15.859375 C 2.929688 -15.796875 4.328125 -15.765625 6.171875 -15.765625 C 7.734375 -15.765625 9.203125 -15.804688 10.578125 -15.890625 C 10.734375 -15.898438 10.890625 -15.90625 11.046875 -15.90625 C 11.304688 -15.90625 11.492188 -15.828125 11.609375 -15.671875 C 11.734375 -15.523438 11.820312 -15.222656 11.875 -14.765625 C 11.957031 -13.878906 12.078125 -13.1875 12.234375 -12.6875 C 12.296875 -12.445312 12.328125 -12.285156 12.328125 -12.203125 C 12.328125 -12.035156 12.253906 -11.898438 12.109375 -11.796875 C 11.960938 -11.691406 11.804688 -11.640625 11.640625 -11.640625 C 11.554688 -11.640625 11.457031 -11.65625 11.34375 -11.6875 C 11.226562 -11.71875 11.132812 -11.738281 11.0625 -11.75 C 10.21875 -12.019531 9.234375 -12.15625 8.109375 -12.15625 L 6.78125 -12.15625 C 6.519531 -12.15625 6.34375 -12.101562 6.25 -12 C 6.164062 -11.90625 6.125 -11.742188 6.125 -11.515625 L 6.125 -10.4375 C 6.125 -10.195312 6.1875 -10.039062 6.3125 -9.96875 C 6.4375 -9.90625 6.660156 -9.875 6.984375 -9.875 L 8.578125 -9.875 C 9.109375 -9.875 9.578125 -9.9375 9.984375 -10.0625 C 10.398438 -10.195312 10.65625 -10.265625 10.75 -10.265625 C 10.957031 -10.265625 11.117188 -10.195312 11.234375 -10.0625 C 11.347656 -9.925781 11.40625 -9.765625 11.40625 -9.578125 C 11.40625 -9.441406 11.390625 -9.203125 11.359375 -8.859375 C 11.335938 -8.523438 11.328125 -8.269531 11.328125 -8.09375 L 11.40625 -6.671875 C 11.40625 -6.523438 11.34375 -6.378906 11.21875 -6.234375 C 11.09375 -6.097656 10.925781 -6.03125 10.71875 -6.03125 C 10.625 -6.03125 10.441406 -6.066406 10.171875 -6.140625 C 9.898438 -6.222656 9.65625 -6.289062 9.4375 -6.34375 C 9.21875 -6.394531 8.914062 -6.421875 8.53125 -6.421875 L 6.84375 -6.421875 C 6.59375 -6.421875 6.410156 -6.378906 6.296875 -6.296875 C 6.179688 -6.210938 6.125 -6.050781 6.125 -5.8125 L 6.125 -4.671875 C 6.125 -4.429688 6.171875 -4.273438 6.265625 -4.203125 C 6.367188 -4.128906 6.539062 -4.082031 6.78125 -4.0625 C 7.257812 -4.039062 7.75 -4.03125 8.25 -4.03125 C 9.019531 -4.03125 9.648438 -4.078125 10.140625 -4.171875 C 10.640625 -4.265625 11.101562 -4.382812 11.53125 -4.53125 C 11.738281 -4.613281 11.894531 -4.65625 12 -4.65625 C 12.1875 -4.65625 12.347656 -4.59375 12.484375 -4.46875 C 12.617188 -4.351562 12.6875 -4.210938 12.6875 -4.046875 C 12.6875 -3.867188 12.617188 -3.578125 12.484375 -3.171875 C 12.398438 -2.890625 12.304688 -2.472656 12.203125 -1.921875 C 12.109375 -1.367188 12.0625 -1.019531 12.0625 -0.875 C 12.050781 -0.53125 11.988281 -0.273438 11.875 -0.109375 C 11.769531 0.0546875 11.566406 0.140625 11.265625 0.140625 L 10.296875 0.09375 C 8.453125 0.03125 6.863281 0 5.53125 0 C 3.988281 0 2.921875 0.0195312 2.328125 0.0625 C 1.742188 0.113281 1.40625 0.140625 1.3125 0.140625 C 1.082031 0.140625 0.90625 0.0703125 0.78125 -0.0625 C 0.65625 -0.195312 0.59375 -0.378906 0.59375 -0.609375 C 0.59375 -0.710938 0.609375 -0.804688 0.640625 -0.890625 C 0.671875 -0.972656 0.726562 -1.070312 0.8125 -1.1875 C 0.894531 -1.3125 0.960938 -1.453125 1.015625 -1.609375 C 1.066406 -1.773438 1.09375 -2.007812 1.09375 -2.3125 L 1.09375 -13.5 C 1.09375 -13.78125 1.066406 -13.992188 1.015625 -14.140625 C 0.960938 -14.285156 0.894531 -14.421875 0.8125 -14.546875 C 0.738281 -14.671875 0.679688 -14.78125 0.640625 -14.875 C 0.609375 -14.96875 0.59375 -15.078125 0.59375 -15.203125 C 0.59375 -15.410156 0.65625 -15.578125 0.78125 -15.703125 C 0.914062 -15.835938 1.109375 -15.90625 1.359375 -15.90625 Z M 1.359375 -15.90625 "/></g></g></g><g fill="#ffffff" fill-opacity="1"><g transform="translate(57.385977, 33.185764)"><g><path d="M 7.5 -16.171875 C 7.988281 -16.171875 8.550781 -16.113281 9.1875 -16 C 9.832031 -15.882812 10.378906 -15.710938 10.828125 -15.484375 C 11.171875 -15.304688 11.394531 -15.144531 11.5 -15 C 11.601562 -14.863281 11.65625 -14.6875 11.65625 -14.46875 C 11.65625 -13.476562 11.675781 -12.738281 11.71875 -12.25 C 11.757812 -11.769531 11.785156 -11.484375 11.796875 -11.390625 C 11.835938 -11.148438 11.859375 -10.9375 11.859375 -10.75 C 11.859375 -10.519531 11.78125 -10.335938 11.625 -10.203125 C 11.476562 -10.066406 11.210938 -10 10.828125 -10 L 9.390625 -10 C 9.035156 -10 8.800781 -10.054688 8.6875 -10.171875 C 8.582031 -10.285156 8.515625 -10.476562 8.484375 -10.75 C 8.410156 -11.351562 8.070312 -11.65625 7.46875 -11.65625 C 6.925781 -11.65625 6.535156 -11.390625 6.296875 -10.859375 C 6.066406 -10.335938 5.953125 -9.421875 5.953125 -8.109375 C 5.953125 -6.804688 6.171875 -5.882812 6.609375 -5.34375 C 7.046875 -4.800781 7.742188 -4.53125 8.703125 -4.53125 C 9.210938 -4.53125 9.878906 -4.617188 10.703125 -4.796875 C 11.128906 -4.890625 11.410156 -4.9375 11.546875 -4.9375 C 11.753906 -4.9375 11.921875 -4.875 12.046875 -4.75 C 12.171875 -4.632812 12.234375 -4.484375 12.234375 -4.296875 C 12.234375 -4.160156 12.132812 -3.6875 11.9375 -2.875 C 11.832031 -2.414062 11.757812 -1.957031 11.71875 -1.5 C 11.675781 -1.039062 11.632812 -0.738281 11.59375 -0.59375 C 11.5625 -0.457031 11.414062 -0.316406 11.15625 -0.171875 C 10.894531 -0.0234375 10.46875 0.09375 9.875 0.1875 C 9.28125 0.289062 8.519531 0.34375 7.59375 0.34375 C 5.175781 0.34375 3.367188 -0.382812 2.171875 -1.84375 C 0.984375 -3.300781 0.390625 -5.285156 0.390625 -7.796875 C 0.390625 -10.546875 1 -12.628906 2.21875 -14.046875 C 3.445312 -15.460938 5.207031 -16.171875 7.5 -16.171875 Z M 7.5 -16.171875 "/></g></g></g><g fill="#ffffff" fill-opacity="1"><g transform="translate(69.867475, 33.185764)"><g><path d="M 1.3125 -15.90625 C 1.550781 -15.90625 1.894531 -15.878906 2.34375 -15.828125 C 2.800781 -15.785156 3.210938 -15.765625 3.578125 -15.765625 C 3.890625 -15.765625 4.296875 -15.785156 4.796875 -15.828125 C 5.296875 -15.878906 5.664062 -15.90625 5.90625 -15.90625 C 6.132812 -15.90625 6.304688 -15.835938 6.421875 -15.703125 C 6.546875 -15.578125 6.609375 -15.398438 6.609375 -15.171875 C 6.609375 -14.960938 6.550781 -14.769531 6.4375 -14.59375 C 6.34375 -14.457031 6.265625 -14.296875 6.203125 -14.109375 C 6.148438 -13.929688 6.125 -13.644531 6.125 -13.25 L 6.125 -10.890625 C 6.125 -10.578125 6.171875 -10.363281 6.265625 -10.25 C 6.367188 -10.144531 6.570312 -10.09375 6.875 -10.09375 L 7.96875 -10.09375 C 8.28125 -10.09375 8.476562 -10.15625 8.5625 -10.28125 C 8.65625 -10.40625 8.703125 -10.628906 8.703125 -10.953125 L 8.703125 -13.453125 C 8.703125 -13.765625 8.671875 -14.003906 8.609375 -14.171875 C 8.554688 -14.335938 8.484375 -14.5 8.390625 -14.65625 C 8.273438 -14.84375 8.21875 -15.03125 8.21875 -15.21875 C 8.21875 -15.40625 8.28125 -15.566406 8.40625 -15.703125 C 8.53125 -15.835938 8.703125 -15.90625 8.921875 -15.90625 C 10.015625 -15.8125 10.765625 -15.765625 11.171875 -15.765625 C 11.523438 -15.765625 11.957031 -15.785156 12.46875 -15.828125 C 12.976562 -15.878906 13.332031 -15.90625 13.53125 -15.90625 C 13.738281 -15.90625 13.90625 -15.835938 14.03125 -15.703125 C 14.15625 -15.578125 14.21875 -15.410156 14.21875 -15.203125 C 14.21875 -14.992188 14.160156 -14.796875 14.046875 -14.609375 C 13.953125 -14.460938 13.878906 -14.316406 13.828125 -14.171875 C 13.785156 -14.035156 13.765625 -13.84375 13.765625 -13.59375 L 13.765625 -2.3125 C 13.765625 -2 13.789062 -1.753906 13.84375 -1.578125 C 13.894531 -1.410156 13.96875 -1.253906 14.0625 -1.109375 C 14.113281 -1.023438 14.15625 -0.941406 14.1875 -0.859375 C 14.226562 -0.785156 14.25 -0.695312 14.25 -0.59375 C 14.25 -0.375 14.179688 -0.195312 14.046875 -0.0625 C 13.921875 0.0703125 13.757812 0.140625 13.5625 0.140625 C 12.550781 0.046875 11.710938 0 11.046875 0 C 10.390625 0 9.890625 0.0195312 9.546875 0.0625 C 9.203125 0.113281 8.984375 0.140625 8.890625 0.140625 C 8.679688 0.140625 8.515625 0.0703125 8.390625 -0.0625 C 8.273438 -0.207031 8.21875 -0.382812 8.21875 -0.59375 C 8.21875 -0.78125 8.289062 -0.976562 8.4375 -1.1875 C 8.582031 -1.4375 8.664062 -1.664062 8.6875 -1.875 C 8.695312 -2.320312 8.703125 -3.320312 8.703125 -4.875 C 8.703125 -5.320312 8.660156 -5.613281 8.578125 -5.75 C 8.492188 -5.882812 8.304688 -5.953125 8.015625 -5.953125 L 6.84375 -5.953125 C 6.539062 -5.953125 6.34375 -5.882812 6.25 -5.75 C 6.164062 -5.625 6.125 -5.398438 6.125 -5.078125 L 6.125 -2.3125 C 6.125 -2.007812 6.148438 -1.773438 6.203125 -1.609375 C 6.265625 -1.453125 6.34375 -1.300781 6.4375 -1.15625 C 6.550781 -0.96875 6.609375 -0.78125 6.609375 -0.59375 C 6.609375 -0.363281 6.546875 -0.179688 6.421875 -0.046875 C 6.304688 0.078125 6.140625 0.140625 5.921875 0.140625 C 5.859375 0.140625 5.578125 0.113281 5.078125 0.0625 C 4.578125 0.0195312 4.117188 0 3.703125 0 C 3.191406 0 2.390625 0.046875 1.296875 0.140625 C 1.078125 0.140625 0.90625 0.078125 0.78125 -0.046875 C 0.664062 -0.179688 0.609375 -0.363281 0.609375 -0.59375 C 0.609375 -0.75 0.671875 -0.9375 0.796875 -1.15625 C 0.890625 -1.3125 0.960938 -1.46875 1.015625 -1.625 C 1.066406 -1.78125 1.09375 -1.988281 1.09375 -2.25 L 1.09375 -13.53125 C 1.09375 -13.800781 1.066406 -14.003906 1.015625 -14.140625 C 0.972656 -14.285156 0.90625 -14.425781 0.8125 -14.5625 C 0.738281 -14.675781 0.6875 -14.769531 0.65625 -14.84375 C 0.625 -14.925781 0.609375 -15.046875 0.609375 -15.203125 C 0.609375 -15.429688 0.675781 -15.601562 0.8125 -15.71875 C 0.945312 -15.84375 1.113281 -15.90625 1.3125 -15.90625 Z M 1.3125 -15.90625 "/></g></g></g><path fill="#ffffff" d="M 34.898438 27.992188 L 34.898438 13.160156 L 38.988281 9.074219 L 52.339844 9.074219 L 51.660156 9.753906 L 39.265625 9.753906 L 35.578125 13.441406 L 35.578125 27.308594 Z M 34.898438 27.992188 " fill-opacity="1" fill-rule="nonzero"/><g clip-path="url(#92db9dd960)"><path fill="#ffffff" d="M 36.765625 11.574219 L 36.765625 8.847656 L 39.605469 6.011719 L 60.226562 6.011719 L 59.582031 6.695312 L 39.882812 6.695312 L 37.445312 9.128906 L 37.445312 11.574219 Z M 36.765625 11.574219 " fill-opacity="1" fill-rule="nonzero"/></g><path fill="#ffffff" d="M 40.023438 8.457031 L 40.527344 7.902344 L 40.140625 7.347656 L 40.660156 7.347656 L 41.042969 7.902344 L 40.539062 8.457031 Z M 40.023438 8.457031 " fill-opacity="1" fill-rule="evenodd"/><path fill="#ffffff" d="M 40.816406 8.457031 L 41.320312 7.902344 L 40.933594 7.347656 L 41.453125 7.347656 L 41.839844 7.902344 L 41.332031 8.457031 Z M 40.816406 8.457031 " fill-opacity="1" fill-rule="evenodd"/><path fill="#ffffff" d="M 41.609375 8.457031 L 42.113281 7.902344 L 41.730469 7.347656 L 42.246094 7.347656 L 42.632812 7.902344 L 42.128906 8.457031 Z M 41.609375 8.457031 " fill-opacity="1" fill-rule="evenodd"/><path fill="#ffffff" d="M 42.402344 8.457031 L 42.910156 7.902344 L 42.523438 7.347656 L 43.039062 7.347656 L 43.425781 7.902344 L 42.921875 8.457031 Z M 42.402344 8.457031 " fill-opacity="1" fill-rule="evenodd"/><path fill="#ffffff" d="M 43.199219 8.457031 L 43.703125 7.902344 L 43.316406 7.347656 L 43.835938 7.347656 L 44.21875 7.902344 L 43.714844 8.457031 Z M 43.199219 8.457031 " fill-opacity="1" fill-rule="evenodd"/><path fill="#ffffff" d="M 43.992188 8.457031 L 44.496094 7.902344 L 44.109375 7.347656 L 44.628906 7.347656 L 45.011719 7.902344 L 44.507812 8.457031 Z M 43.992188 8.457031 " fill-opacity="1" fill-rule="evenodd"/><path fill="#ffffff" d="M 44.785156 8.457031 L 45.289062 7.902344 L 44.90625 7.347656 L 45.421875 7.347656 L 45.808594 7.902344 L 45.304688 8.457031 Z M 44.785156 8.457031 " fill-opacity="1" fill-rule="evenodd"/><path fill="#ffffff" d="M 45.578125 8.457031 L 46.082031 7.902344 L 45.699219 7.347656 L 46.214844 7.347656 L 46.601562 7.902344 L 46.097656 8.457031 Z M 45.578125 8.457031 " fill-opacity="1" fill-rule="evenodd"/><path fill="#ffffff" d="M 46.375 8.457031 L 46.878906 7.902344 L 46.492188 7.347656 L 47.007812 7.347656 L 47.394531 7.902344 L 46.890625 8.457031 Z M 46.375 8.457031 " fill-opacity="1" fill-rule="evenodd"/><path fill="#ffffff" d="M 47.167969 8.457031 L 47.671875 7.902344 L 47.285156 7.347656 L 47.804688 7.347656 L 48.1875 7.902344 L 47.683594 8.457031 Z M 47.167969 8.457031 " fill-opacity="1" fill-rule="evenodd"/><path fill="#ffffff" d="M 35.496094 18.050781 L 35.496094 25.621094 L 36.375 24.882812 L 36.375 17.3125 Z M 35.496094 18.050781 " fill-opacity="1" fill-rule="evenodd"/><path fill="#ffffff" d="M 35.496094 16.308594 L 35.496094 17.519531 L 36.375 16.78125 L 36.375 15.566406 Z M 35.496094 16.308594 " fill-opacity="1" fill-rule="evenodd"/><path fill="#ffffff" d="M 35.496094 14.253906 L 35.496094 15.464844 L 36.375 14.726562 L 36.375 13.515625 Z M 35.496094 14.253906 " fill-opacity="1" fill-rule="evenodd"/><g clip-path="url(#faa546c3e3)"><path fill="#ffffff" d="M 43.667969 9.074219 L 40.941406 9.074219 L 36.777344 13.265625 L 36.777344 33.847656 L 37.457031 33.199219 L 37.457031 13.503906 L 41.222656 9.753906 L 43.667969 9.753906 Z M 43.667969 9.074219 " fill-opacity="1" fill-rule="nonzero"/></g><g clip-path="url(#a8f4a0cc16)"><path stroke-linecap="butt" transform="matrix(0.0619483, 0, 0, 0.0619483, 32.790736, 3.923003)" fill="none" stroke-linejoin="miter" d="M 19.89888 47.526472 L 21.601409 49.165944 " stroke="#000000" stroke-width="0.5" stroke-opacity="1" stroke-miterlimit="2.613"/></g><path fill="#ffffff" d="M 47.914062 8.128906 L 55.785156 8.128906 L 56.394531 7.625 L 47.914062 7.625 Z M 47.914062 8.128906 " fill-opacity="1" fill-rule="nonzero"/><g clip-path="url(#f2512979dc)"><path fill="#ffffff" d="M 46.929688 6.269531 L 39.363281 6.269531 L 40.253906 5.386719 L 47.820312 5.386719 Z M 46.929688 6.269531 " fill-opacity="1" fill-rule="evenodd"/></g><g clip-path="url(#cda2e4a9c0)"><path fill="#ffffff" d="M 48.675781 6.269531 L 47.464844 6.269531 L 48.355469 5.386719 L 49.566406 5.386719 Z M 48.675781 6.269531 " fill-opacity="1" fill-rule="evenodd"/></g><g clip-path="url(#e2054b3ee4)"><path fill="#ffffff" d="M 50.730469 6.269531 L 49.515625 6.269531 L 50.40625 5.386719 L 51.621094 5.386719 Z M 50.730469 6.269531 " fill-opacity="1" fill-rule="evenodd"/></g><path fill="#ffffff" d="M 44.460938 12.648438 C 43.960938 12.148438 43.269531 11.835938 42.507812 11.835938 C 41.746094 11.835938 41.054688 12.148438 40.554688 12.648438 C 40.054688 13.148438 39.746094 13.835938 39.746094 14.601562 C 39.746094 15.363281 40.054688 16.054688 40.554688 16.554688 C 41.054688 17.054688 41.746094 17.363281 42.507812 17.363281 C 43.269531 17.363281 43.960938 17.054688 44.460938 16.554688 C 44.960938 16.054688 45.269531 15.363281 45.269531 14.601562 C 45.269531 13.835938 44.960938 13.148438 44.460938 12.648438 M 42.507812 11.386719 C 43.394531 11.386719 44.199219 11.746094 44.78125 12.328125 C 45.359375 12.910156 45.722656 13.714844 45.722656 14.601562 C 45.722656 15.488281 45.359375 16.292969 44.78125 16.871094 C 44.199219 17.453125 43.394531 17.8125 42.507812 17.8125 C 41.621094 17.8125 40.816406 17.453125 40.234375 16.871094 C 39.652344 16.292969 39.292969 15.488281 39.292969 14.601562 C 39.292969 13.714844 39.652344 12.910156 40.234375 12.328125 C 40.816406 11.746094 41.621094 11.386719 42.507812 11.386719 Z M 42.507812 11.386719 " fill-opacity="1" fill-rule="nonzero"/><path fill="#ffffff" d="M 43.738281 13.070312 C 43.582031 12.945312 43.40625 12.84375 43.21875 12.769531 L 43.3125 12.421875 C 43.5625 12.511719 43.792969 12.644531 43.992188 12.8125 Z M 44.339844 13.886719 C 44.265625 13.699219 44.164062 13.527344 44.039062 13.371094 L 44.296875 13.117188 C 44.460938 13.316406 44.597656 13.546875 44.6875 13.796875 Z M 44.449219 14.898438 C 44.464844 14.800781 44.472656 14.703125 44.472656 14.601562 C 44.472656 14.5 44.464844 14.398438 44.449219 14.300781 L 44.796875 14.207031 C 44.820312 14.335938 44.832031 14.464844 44.832031 14.601562 C 44.832031 14.734375 44.820312 14.867188 44.796875 14.992188 Z M 44.039062 15.832031 C 44.164062 15.675781 44.265625 15.5 44.339844 15.3125 L 44.6875 15.40625 C 44.597656 15.65625 44.460938 15.886719 44.296875 16.085938 Z M 43.21875 16.429688 C 43.40625 16.359375 43.582031 16.257812 43.738281 16.132812 L 43.992188 16.386719 C 43.792969 16.554688 43.5625 16.6875 43.3125 16.78125 Z M 42.207031 16.542969 C 42.304688 16.558594 42.40625 16.566406 42.507812 16.566406 C 42.609375 16.566406 42.710938 16.558594 42.804688 16.542969 L 42.898438 16.890625 C 42.773438 16.914062 42.640625 16.925781 42.507812 16.925781 C 42.375 16.925781 42.242188 16.914062 42.117188 16.890625 Z M 41.277344 16.132812 C 41.433594 16.257812 41.609375 16.359375 41.796875 16.429688 L 41.703125 16.78125 C 41.453125 16.6875 41.222656 16.554688 41.023438 16.386719 Z M 40.675781 15.3125 C 40.75 15.5 40.851562 15.675781 40.976562 15.832031 L 40.71875 16.085938 C 40.554688 15.886719 40.417969 15.65625 40.328125 15.40625 Z M 40.566406 14.300781 C 40.550781 14.398438 40.542969 14.5 40.542969 14.601562 C 40.542969 14.703125 40.550781 14.800781 40.566406 14.898438 L 40.214844 14.992188 C 40.195312 14.867188 40.183594 14.734375 40.183594 14.601562 C 40.183594 14.464844 40.195312 14.335938 40.214844 14.207031 Z M 40.976562 13.371094 C 40.851562 13.527344 40.75 13.699219 40.675781 13.886719 L 40.328125 13.796875 C 40.417969 13.546875 40.554688 13.316406 40.71875 13.117188 Z M 41.796875 12.769531 C 41.609375 12.84375 41.433594 12.945312 41.277344 13.070312 L 41.023438 12.8125 C 41.222656 12.644531 41.453125 12.511719 41.703125 12.417969 Z M 42.507812 12.277344 C 42.640625 12.277344 42.773438 12.289062 42.898438 12.308594 L 42.804688 12.660156 C 42.707031 12.644531 42.609375 12.636719 42.507812 12.636719 C 42.40625 12.636719 42.304688 12.644531 42.207031 12.660156 L 42.117188 12.308594 C 42.242188 12.289062 42.375 12.277344 42.507812 12.277344 Z M 42.507812 12.277344 " fill-opacity="1" fill-rule="nonzero"/><path fill="#ffffff" d="M 37.257812 27.992188 L 37.257812 13.160156 L 33.167969 9.074219 L 19.816406 9.074219 L 20.496094 9.753906 L 32.890625 9.753906 L 36.578125 13.441406 L 36.578125 27.308594 Z M 37.257812 27.992188 " fill-opacity="1" fill-rule="nonzero"/><g clip-path="url(#a4a00caf04)"><path fill="#ffffff" d="M 35.390625 11.574219 L 35.390625 8.847656 L 32.550781 6.011719 L 11.929688 6.011719 L 12.574219 6.695312 L 32.273438 6.695312 L 34.710938 9.128906 L 34.710938 11.574219 Z M 35.390625 11.574219 " fill-opacity="1" fill-rule="nonzero"/></g><path fill="#ffffff" d="M 32.132812 8.457031 L 31.628906 7.902344 L 32.015625 7.347656 L 31.496094 7.347656 L 31.113281 7.902344 L 31.617188 8.457031 Z M 32.132812 8.457031 " fill-opacity="1" fill-rule="evenodd"/><path fill="#ffffff" d="M 31.339844 8.457031 L 30.835938 7.902344 L 31.21875 7.347656 L 30.703125 7.347656 L 30.316406 7.902344 L 30.820312 8.457031 Z M 31.339844 8.457031 " fill-opacity="1" fill-rule="evenodd"/><path fill="#ffffff" d="M 30.546875 8.457031 L 30.042969 7.902344 L 30.425781 7.347656 L 29.910156 7.347656 L 29.523438 7.902344 L 30.027344 8.457031 Z M 30.546875 8.457031 " fill-opacity="1" fill-rule="evenodd"/><path fill="#ffffff" d="M 29.75 8.457031 L 29.246094 7.902344 L 29.632812 7.347656 L 29.117188 7.347656 L 28.730469 7.902344 L 29.234375 8.457031 Z M 29.75 8.457031 " fill-opacity="1" fill-rule="evenodd"/><path fill="#ffffff" d="M 28.957031 8.457031 L 28.453125 7.902344 L 28.839844 7.347656 L 28.320312 7.347656 L 27.9375 7.902344 L 28.441406 8.457031 Z M 28.957031 8.457031 " fill-opacity="1" fill-rule="evenodd"/><path fill="#ffffff" d="M 28.164062 8.457031 L 27.660156 7.902344 L 28.046875 7.347656 L 27.527344 7.347656 L 27.140625 7.902344 L 27.648438 8.457031 Z M 28.164062 8.457031 " fill-opacity="1" fill-rule="evenodd"/><path fill="#ffffff" d="M 27.371094 8.457031 L 26.867188 7.902344 L 27.25 7.347656 L 26.734375 7.347656 L 26.347656 7.902344 L 26.851562 8.457031 Z M 27.371094 8.457031 " fill-opacity="1" fill-rule="evenodd"/><path fill="#ffffff" d="M 26.578125 8.457031 L 26.070312 7.902344 L 26.457031 7.347656 L 25.941406 7.347656 L 25.554688 7.902344 L 26.058594 8.457031 Z M 26.578125 8.457031 " fill-opacity="1" fill-rule="evenodd"/><path fill="#ffffff" d="M 25.78125 8.457031 L 25.277344 7.902344 L 25.664062 7.347656 L 25.144531 7.347656 L 24.761719 7.902344 L 25.265625 8.457031 Z M 25.78125 8.457031 " fill-opacity="1" fill-rule="evenodd"/><path fill="#ffffff" d="M 24.988281 8.457031 L 24.484375 7.902344 L 24.871094 7.347656 L 24.351562 7.347656 L 23.96875 7.902344 L 24.472656 8.457031 Z M 24.988281 8.457031 " fill-opacity="1" fill-rule="evenodd"/><path fill="#ffffff" d="M 36.660156 18.050781 L 36.660156 25.621094 L 35.78125 24.882812 L 35.78125 17.3125 Z M 36.660156 18.050781 " fill-opacity="1" fill-rule="evenodd"/><path fill="#ffffff" d="M 36.660156 16.308594 L 36.660156 17.519531 L 35.78125 16.78125 L 35.78125 15.566406 Z M 36.660156 16.308594 " fill-opacity="1" fill-rule="evenodd"/><path fill="#ffffff" d="M 36.660156 14.253906 L 36.660156 15.464844 L 35.78125 14.726562 L 35.78125 13.515625 Z M 36.660156 14.253906 " fill-opacity="1" fill-rule="evenodd"/><g clip-path="url(#cd39b48a02)"><path fill="#ffffff" d="M 28.488281 9.074219 L 31.214844 9.074219 L 35.378906 13.265625 L 35.378906 33.847656 L 34.699219 33.199219 L 34.699219 13.503906 L 30.933594 9.753906 L 28.488281 9.753906 Z M 28.488281 9.074219 " fill-opacity="1" fill-rule="nonzero"/></g><g clip-path="url(#32d6fd655a)"><path stroke-linecap="butt" transform="matrix(-0.0619483, 0, 0, 0.0619483, 39.365086, 3.923003)" fill="none" stroke-linejoin="miter" d="M 19.955018 47.526472 L 21.59449 49.165944 " stroke="#000000" stroke-width="0.5" stroke-opacity="1" stroke-miterlimit="2.613"/></g><path fill="#ffffff" d="M 24.242188 8.128906 L 16.371094 8.128906 L 15.761719 7.625 L 24.242188 7.625 Z M 24.242188 8.128906 " fill-opacity="1" fill-rule="nonzero"/><g clip-path="url(#b77035df8c)"><path fill="#ffffff" d="M 25.226562 6.269531 L 32.792969 6.269531 L 31.902344 5.386719 L 24.335938 5.386719 Z M 25.226562 6.269531 " fill-opacity="1" fill-rule="evenodd"/></g><g clip-path="url(#1ed343f40e)"><path fill="#ffffff" d="M 23.480469 6.269531 L 24.691406 6.269531 L 23.800781 5.386719 L 22.589844 5.386719 Z M 23.480469 6.269531 " fill-opacity="1" fill-rule="evenodd"/></g><g clip-path="url(#8481647179)"><path fill="#ffffff" d="M 21.425781 6.269531 L 22.640625 6.269531 L 21.75 5.386719 L 20.535156 5.386719 Z M 21.425781 6.269531 " fill-opacity="1" fill-rule="evenodd"/></g><path fill="#ffffff" d="M 27.695312 12.648438 C 28.195312 12.148438 28.886719 11.835938 29.648438 11.835938 C 30.410156 11.835938 31.101562 12.148438 31.601562 12.648438 C 32.101562 13.148438 32.410156 13.835938 32.410156 14.601562 C 32.410156 15.363281 32.101562 16.054688 31.601562 16.554688 C 31.101562 17.054688 30.410156 17.363281 29.648438 17.363281 C 28.886719 17.363281 28.195312 17.054688 27.695312 16.554688 C 27.195312 16.054688 26.886719 15.363281 26.886719 14.601562 C 26.886719 13.835938 27.195312 13.148438 27.695312 12.648438 M 29.648438 11.386719 C 28.761719 11.386719 27.957031 11.746094 27.375 12.328125 C 26.792969 12.910156 26.433594 13.714844 26.433594 14.601562 C 26.433594 15.488281 26.792969 16.292969 27.375 16.871094 C 27.957031 17.453125 28.761719 17.8125 29.648438 17.8125 C 30.535156 17.8125 31.339844 17.453125 31.921875 16.871094 C 32.5 16.292969 32.859375 15.488281 32.859375 14.601562 C 32.859375 13.714844 32.5 12.910156 31.921875 12.328125 C 31.339844 11.746094 30.535156 11.386719 29.648438 11.386719 Z M 29.648438 11.386719 " fill-opacity="1" fill-rule="nonzero"/><path fill="#ffffff" d="M 28.417969 13.070312 C 28.574219 12.945312 28.746094 12.84375 28.9375 12.769531 L 28.84375 12.421875 C 28.59375 12.511719 28.363281 12.644531 28.164062 12.8125 Z M 27.816406 13.886719 C 27.890625 13.699219 27.992188 13.527344 28.117188 13.371094 L 27.859375 13.117188 C 27.691406 13.316406 27.558594 13.546875 27.46875 13.796875 Z M 27.707031 14.898438 C 27.691406 14.800781 27.683594 14.703125 27.683594 14.601562 C 27.683594 14.5 27.691406 14.398438 27.707031 14.300781 L 27.355469 14.207031 C 27.335938 14.335938 27.324219 14.464844 27.324219 14.601562 C 27.324219 14.734375 27.335938 14.867188 27.355469 14.992188 Z M 28.117188 15.832031 C 27.992188 15.675781 27.890625 15.5 27.816406 15.3125 L 27.46875 15.40625 C 27.558594 15.65625 27.691406 15.886719 27.859375 16.085938 Z M 28.9375 16.429688 C 28.746094 16.359375 28.574219 16.257812 28.417969 16.132812 L 28.164062 16.386719 C 28.363281 16.554688 28.59375 16.6875 28.84375 16.78125 Z M 29.945312 16.542969 C 29.847656 16.558594 29.75 16.566406 29.648438 16.566406 C 29.546875 16.566406 29.445312 16.558594 29.347656 16.542969 L 29.253906 16.890625 C 29.382812 16.914062 29.515625 16.925781 29.648438 16.925781 C 29.78125 16.925781 29.914062 16.914062 30.039062 16.890625 Z M 30.878906 16.132812 C 30.722656 16.257812 30.546875 16.359375 30.359375 16.429688 L 30.453125 16.78125 C 30.703125 16.6875 30.933594 16.554688 31.132812 16.386719 Z M 31.480469 15.3125 C 31.40625 15.5 31.304688 15.675781 31.179688 15.832031 L 31.4375 16.085938 C 31.601562 15.886719 31.738281 15.65625 31.828125 15.40625 Z M 31.589844 14.300781 C 31.605469 14.398438 31.613281 14.5 31.613281 14.601562 C 31.613281 14.703125 31.605469 14.800781 31.589844 14.898438 L 31.9375 14.992188 C 31.960938 14.867188 31.972656 14.734375 31.972656 14.601562 C 31.972656 14.464844 31.960938 14.335938 31.9375 14.207031 Z M 31.179688 13.371094 C 31.304688 13.527344 31.40625 13.699219 31.480469 13.886719 L 31.828125 13.796875 C 31.738281 13.546875 31.601562 13.316406 31.4375 13.117188 Z M 30.359375 12.769531 C 30.546875 12.84375 30.722656 12.945312 30.878906 13.070312 L 31.132812 12.8125 C 30.933594 12.644531 30.703125 12.511719 30.453125 12.417969 Z M 29.648438 12.277344 C 29.515625 12.277344 29.382812 12.289062 29.253906 12.308594 L 29.347656 12.660156 C 29.445312 12.644531 29.546875 12.636719 29.648438 12.636719 C 29.75 12.636719 29.847656 12.644531 29.945312 12.660156 L 30.039062 12.308594 C 29.914062 12.289062 29.78125 12.277344 29.648438 12.277344 Z M 29.648438 12.277344 " fill-opacity="1" fill-rule="nonzero"/></svg>