<svg xmlns="http://www.w3.org/2000/svg" xmlns:xlink="http://www.w3.org/1999/xlink" width="160" zoomAndPan="magnify" viewBox="0 0 120 119.999999" height="160" preserveAspectRatio="xMidYMid meet" version="1.0"><defs><clipPath id="5c96e99efa"><path d="M 7.402344 18.4375 L 24.59375 18.4375 L 24.59375 94.972656 L 7.402344 94.972656 Z M 7.402344 18.4375 " clip-rule="nonzero"/></clipPath><clipPath id="b73cd8a140"><path d="M 7.707031 17.875 L 87.652344 17.875 L 87.652344 94.152344 L 7.707031 94.152344 Z M 7.707031 17.875 " clip-rule="nonzero"/></clipPath><clipPath id="37c6c779d5"><path d="M 24.902344 18.65625 L 104.847656 18.65625 L 104.847656 94.933594 L 24.902344 94.933594 Z M 24.902344 18.65625 " clip-rule="nonzero"/></clipPath><clipPath id="a33b82d67c"><path d="M 32.339844 18.65625 L 112.285156 18.65625 L 112.285156 94.933594 L 32.339844 94.933594 Z M 32.339844 18.65625 " clip-rule="nonzero"/></clipPath><clipPath id="d2dc50b4e3"><path d="M 8.765625 1.242188 L 61.761719 1.242188 L 61.761719 18.433594 L 8.765625 18.433594 Z M 8.765625 1.242188 " clip-rule="nonzero"/></clipPath><clipPath id="63f0f044d4"><path d="M 21.34375 53.808594 L 53.96875 53.808594 L 53.96875 71 L 21.34375 71 Z M 21.34375 53.808594 " clip-rule="nonzero"/></clipPath><clipPath id="a132dba4e0"><path d="M 47.683594 29.835938 L 64.875 29.835938 L 64.875 94.972656 L 47.683594 94.972656 Z M 47.683594 29.835938 " clip-rule="nonzero"/></clipPath><clipPath id="6467fb8666"><path d="M 8.761719 23.503906 L 23 23.503906 L 23 118.753906 L 8.761719 118.753906 Z M 8.761719 23.503906 " clip-rule="nonzero"/></clipPath><clipPath id="cf05e20b32"><path d="M 22.832031 87.132812 L 35.59375 87.132812 L 35.59375 103.183594 L 22.832031 103.183594 Z M 22.832031 87.132812 " clip-rule="nonzero"/></clipPath></defs><rect x="-12" width="144" fill="#ffffff" y="-12" height="143.999998" fill-opacity="1"/><rect x="-12" width="144" fill="#ffffff" y="-12" height="143.999998" fill-opacity="1"/><g clip-path="url(#5c96e99efa)"><path fill="#d70018" d="M 24.59375 18.4375 L 24.59375 94.992188 L 7.402344 94.992188 L 7.402344 18.4375 Z M 24.59375 18.4375 " fill-opacity="1" fill-rule="nonzero"/></g><g clip-path="url(#b73cd8a140)"><path fill="#f3f6fa" d="M 86.570312 43.296875 C 82.210938 27.25 69.027344 17.667969 51.300781 17.667969 L 7.40625 17.667969 L 8.269531 19.652344 C 11.992188 28.179688 20.40625 33.691406 29.714844 33.695312 L 41.667969 33.695312 L 41.765625 33.691406 C 42.21875 33.660156 43.898438 33.558594 46.414062 33.558594 C 48.835938 33.558594 51.304688 33.652344 53.738281 33.839844 L 53.980469 33.859375 C 63.304688 34.59375 76.082031 37.03125 83.976562 44.460938 L 84.078125 44.558594 C 84.121094 44.597656 84.160156 44.632812 84.199219 44.675781 L 87.957031 48.417969 Z M 87.773438 61.792969 L 87.761719 61.949219 C 85.390625 81.945312 71.269531 94.367188 50.910156 94.367188 L 22.90625 94.367188 L 22.90625 56.507812 L 24.320312 56.507812 C 32.519531 56.507812 39.191406 63.175781 39.191406 71.375 L 39.191406 78.078125 L 51.59375 78.078125 C 57.703125 78.078125 62.84375 76.074219 66.46875 72.277344 C 70.160156 68.414062 72.109375 62.832031 72.109375 56.132812 L 72.109375 55.902344 C 72.109375 50.714844 70.96875 46.242188 68.71875 42.605469 L 66.617188 39.210938 L 70.386719 40.519531 C 75.066406 42.144531 78.863281 44.304688 81.667969 46.949219 C 85.765625 50.808594 87.820312 55.804688 87.773438 61.792969 " fill-opacity="1" fill-rule="nonzero"/></g><g clip-path="url(#37c6c779d5)"><path fill="#f3f6fa" d="M 103.761719 44.082031 C 99.402344 28.03125 86.21875 18.449219 68.492188 18.449219 L 24.597656 18.449219 L 25.460938 20.4375 C 29.183594 28.960938 37.601562 34.476562 46.90625 34.476562 L 58.957031 34.476562 C 59.410156 34.441406 61.089844 34.339844 63.605469 34.339844 C 66.027344 34.339844 68.496094 34.4375 70.929688 34.621094 L 71.171875 34.640625 C 80.496094 35.375 93.273438 37.8125 101.167969 45.246094 L 101.269531 45.339844 C 101.3125 45.378906 101.351562 45.417969 101.390625 45.457031 L 105.148438 49.199219 Z M 104.964844 62.578125 L 104.953125 62.730469 C 102.582031 82.726562 88.460938 95.148438 68.101562 95.148438 L 40.097656 95.148438 L 40.097656 57.289062 L 41.515625 57.289062 C 49.710938 57.289062 56.382812 63.960938 56.382812 72.160156 L 56.382812 78.863281 L 68.785156 78.863281 C 74.894531 78.863281 80.035156 76.855469 83.664062 73.0625 C 87.351562 69.199219 89.300781 63.613281 89.300781 56.914062 L 89.300781 56.683594 C 89.300781 51.496094 88.160156 47.023438 85.910156 43.390625 L 83.808594 39.996094 L 87.578125 41.304688 C 92.257812 42.925781 96.054688 45.089844 98.859375 47.730469 C 102.957031 51.59375 105.011719 56.585938 104.964844 62.578125 " fill-opacity="1" fill-rule="nonzero"/></g><g clip-path="url(#a33b82d67c)"><path fill="#d70018" d="M 111.203125 44.082031 C 106.84375 28.03125 93.660156 18.449219 75.929688 18.449219 L 32.035156 18.449219 L 32.902344 20.4375 C 36.621094 28.960938 45.039062 34.476562 54.34375 34.476562 L 66.394531 34.476562 C 66.851562 34.441406 68.527344 34.339844 71.046875 34.339844 C 73.46875 34.339844 75.9375 34.4375 78.371094 34.621094 L 78.609375 34.640625 C 87.9375 35.375 100.710938 37.8125 108.609375 45.246094 L 108.710938 45.339844 C 108.75 45.378906 108.792969 45.417969 108.832031 45.457031 L 112.589844 49.199219 Z M 112.402344 62.578125 L 112.394531 62.730469 C 110.023438 82.726562 95.902344 95.148438 75.539062 95.148438 L 47.535156 95.148438 L 47.535156 57.289062 L 48.953125 57.289062 C 57.152344 57.289062 63.820312 63.960938 63.820312 72.160156 L 63.820312 78.863281 L 76.222656 78.863281 C 82.332031 78.863281 87.476562 76.855469 91.101562 73.0625 C 94.789062 69.199219 96.742188 63.613281 96.742188 56.914062 L 96.742188 56.683594 C 96.742188 51.496094 95.601562 47.023438 93.347656 43.390625 L 91.25 39.996094 L 95.019531 41.304688 C 99.699219 42.925781 103.492188 45.089844 106.296875 47.730469 C 110.398438 51.59375 112.453125 56.585938 112.402344 62.578125 " fill-opacity="1" fill-rule="nonzero"/></g><g clip-path="url(#d2dc50b4e3)"><path fill="#f3f6fa" d="M 8.765625 1.242188 L 61.75 1.242188 L 61.75 18.433594 L 8.765625 18.433594 Z M 8.765625 1.242188 " fill-opacity="1" fill-rule="nonzero"/></g><g clip-path="url(#63f0f044d4)"><path fill="#d70018" d="M 21.34375 53.808594 L 53.980469 53.808594 L 53.980469 71 L 21.34375 71 Z M 21.34375 53.808594 " fill-opacity="1" fill-rule="nonzero"/></g><g clip-path="url(#a132dba4e0)"><path fill="#d70018" d="M 47.683594 94.972656 L 47.683594 29.828125 L 64.875 29.828125 L 64.875 94.972656 Z M 47.683594 94.972656 " fill-opacity="1" fill-rule="nonzero"/></g><path fill="#f3f6fa" d="M 15.792969 51.328125 L 16.84375 52.277344 L 16.84375 62.097656 L 21.167969 66.417969 L 21.167969 49.726562 L 15.792969 44.359375 Z M 15.792969 51.328125 " fill-opacity="1" fill-rule="nonzero"/><path fill="#f3f6fa" d="M 15.804688 43.589844 L 21.167969 48.949219 L 21.171875 45.136719 L 15.8125 39.757812 Z M 15.804688 43.589844 " fill-opacity="1" fill-rule="nonzero"/><path fill="#f3f6fa" d="M 21.167969 44.355469 L 21.171875 40.539062 L 15.8125 35.160156 L 15.804688 38.992188 Z M 21.167969 44.355469 " fill-opacity="1" fill-rule="nonzero"/><g clip-path="url(#6467fb8666)"><path fill="#f3f6fa" d="M 8.769531 24.46875 C 8.769531 24.832031 9.015625 25.136719 9.351562 25.226562 L 9.351562 39.636719 L 13.023438 43.308594 L 13.023438 49.816406 L 14.710938 51.507812 L 14.710938 61.210938 L 15.992188 62.492188 L 15.992188 73.425781 L 20.890625 78.324219 L 20.890625 112.84375 L 21.285156 112.84375 L 21.285156 78.714844 L 22.445312 79.878906 L 22.445312 118.316406 L 22.839844 118.316406 L 22.839844 79.714844 L 21.285156 78.160156 L 21.285156 67.226562 L 16.386719 62.328125 L 16.386719 52.621094 L 15.105469 51.34375 L 15.105469 44.835938 L 13.417969 43.144531 L 13.417969 31.800781 C 13.765625 31.71875 14.019531 31.40625 14.019531 31.035156 C 14.019531 30.601562 13.667969 30.25 13.234375 30.25 C 12.796875 30.25 12.445312 30.601562 12.445312 31.035156 C 12.445312 31.398438 12.691406 31.703125 13.027344 31.796875 L 13.027344 42.753906 L 9.746094 39.472656 L 9.746094 25.234375 C 10.089844 25.152344 10.347656 24.839844 10.347656 24.46875 C 10.347656 24.035156 9.992188 23.683594 9.558594 23.683594 C 9.125 23.683594 8.769531 24.035156 8.769531 24.46875 Z M 20.890625 67.390625 L 20.890625 77.765625 L 16.386719 73.261719 L 16.386719 62.886719 Z M 15.992188 52.785156 L 15.992188 61.933594 L 15.105469 61.046875 L 15.105469 51.898438 Z M 14.710938 44.996094 L 14.710938 50.949219 L 13.417969 49.65625 L 13.417969 43.703125 Z M 14.710938 44.996094 " fill-opacity="1" fill-rule="nonzero"/></g><g clip-path="url(#cf05e20b32)"><path fill="#f3f6fa" d="M 35.59375 103.183594 L 22.832031 103.183594 L 22.832031 87.132812 L 35.59375 87.132812 Z M 35.59375 103.183594 " fill-opacity="1" fill-rule="nonzero"/></g></svg>